<svg width="869" height="174" viewBox="0 0 869 174" fill="none" xmlns="http://www.w3.org/2000/svg">
<path d="M0 137.16V0H30.7809V61.8274H32.425C35.9155 44.6311 48.4287 32.5506 72.8485 32.5506C103.629 32.5506 120.866 53.2292 120.866 85.9816C120.866 118.734 103.427 139.211 71.4132 139.211C47.6133 139.211 34.0692 128.972 30.3766 108.711H28.5303V137.167H0.00674495L0 137.16ZM60.7396 111.158C80.6448 111.158 89.6742 104.61 89.6742 85.9748C89.6742 67.3399 80.6448 60.5904 60.9485 60.5904C41.2523 60.5904 30.7876 67.1382 30.7876 84.953V86.5933C30.7876 104.401 41.2523 111.158 60.7464 111.158H60.7396Z" fill="white"/>
<path d="M130.502 85.9815C130.502 53.2292 153.075 32.5506 188.364 32.5506C221.402 32.5506 243.976 50.1569 243.976 76.7716V79.6354H213.404V77.9951C213.404 64.8928 203.761 60.187 187.758 60.187C169.497 60.187 161.08 66.9432 161.08 85.9815C161.08 105.02 169.497 111.568 187.758 111.568C203.761 111.568 213.404 106.862 213.404 93.7595V92.1192H243.976V94.983C243.976 121.389 221.402 139.204 188.364 139.204C153.068 139.204 130.502 118.324 130.502 85.9748V85.9815Z" fill="white"/>
<path d="M257.311 137.161V0.000425279H288.092V72.6713H311.488L337.754 34.5947H374.276L336.723 84.1333L373.656 137.154H337.336L311.69 100.099H288.092V137.154H257.311V137.161Z" fill="white"/>
<path d="M378.581 79.6354C378.581 50.9771 397.254 32.5506 428.034 32.5506C448.964 32.5506 463.943 41.5588 467.225 59.3669H468.869V34.5942H497.595V122.209C497.595 158.034 475.843 174 439.112 174C405.872 174 384.943 159.257 384.943 133.47H415.723C415.723 144.932 420.238 148.414 441.167 148.414C460.864 148.414 466.82 144.32 466.82 124.26V101.127H465.176C461.895 116.273 449.786 126.713 426.801 126.713C396.229 126.713 378.581 108.495 378.581 79.6287V79.6354ZM437.475 100.307C457.171 100.307 466.82 94.7813 466.82 80.6572V78.4052C466.82 64.4827 456.969 59.1652 437.886 59.1652C418.803 59.1652 409.571 64.4894 409.571 79.6354C409.571 94.7813 418.19 100.314 437.475 100.314V100.307Z" fill="white"/>
<path d="M514.009 137.161V34.5949H542.533V61.8213H544.379C547.25 45.2367 558.125 32.5445 578.853 32.5445C601.837 32.5445 611.271 48.309 611.271 68.3691V85.3637H580.49V74.7219C580.49 63.4616 575.975 58.5474 563.462 58.5474C549.716 58.5474 544.79 64.8935 544.79 77.7874V137.154H514.009V137.161Z" fill="white"/>
<path d="M622.356 137.16V34.5942H650.879V66.123H652.725C655.394 48.9267 667.705 32.5506 694.584 32.5506C721.464 32.5506 736.032 50.567 736.032 73.2893V137.16H705.251V83.5277C705.251 67.1516 698.479 60.187 679.598 60.187C660.717 60.187 653.13 67.965 653.13 85.3697V137.16H622.349H622.356Z" fill="white"/>
<path d="M747.932 85.982C747.932 53.2297 765.371 32.5511 795.949 32.5511C820.369 32.5511 832.882 44.6315 836.373 61.8278H838.219V0.000425279H869V137.161H840.274V108.704H838.63C834.729 128.973 821.191 139.205 797.593 139.205C765.579 139.205 747.938 118.324 747.938 85.9753L747.932 85.982ZM808.058 111.158C827.552 111.158 838.219 104.402 838.219 86.5938V84.9534C838.219 67.1454 827.754 60.5909 808.058 60.5909C788.362 60.5909 779.124 67.1387 779.124 85.9753C779.124 104.812 788.355 111.158 808.058 111.158Z" fill="white"/>
</svg>
